# xmcd CD database file
#
# Track frame offsets:
#	150
#	31602
#	58912
#	79275
#	103612
#	125657
#	142855
#	160165
#
# Disc length: 2648 seconds
#
# Revision: 0
# Processed by: cddbd v1.5.1PL2 Copyright (c) Steve Scherf et al.
# Submitted via: CDex 1.51
#
DISCID=630a5608
DTITLE=Kitaro - Ki
DYEAR=1973
DGENRE=New Age
TTITLE0=Revelation
TTITLE1=Stream of Being
TTITLE2=Kaleidoscope
TTITLE3=Oasis
TTITLE4=Sun
TTITLE5=Endless Water
TTITLE6=Tree
TTITLE7=Cloud in the Sky
EXTD=YEAR: 1973
EXTT0=
EXTT1=
EXTT2=
EXTT3=
EXTT4=
EXTT5=
EXTT6=
EXTT7=
PLAYORDER=
